<svg width="0" height="0" class="hidden">

  <symbol xmlns="http://www.w3.org/2000/svg" viewBox="0 0 32 32" id="email-black-18dp">
      <path d="M24 4.667H8c-1.1 0-1.99.9-1.99 2l-.01 12c0 1.1.9 2 2 2h16c1.1 0 2-.9 2-2v-12c0-1.1-.9-2-2-2zm-.4 4.25l-7.07 4.42c-.32.2-.74.2-1.06 0L8.4 8.917a.85.85 0 1 1 .9-1.44l6.7 4.19 6.7-4.19a.85.85 0 1 1 .9 1.44z"></path>
  </symbol>

   <symbol viewBox="0 0 24 24"  xmlns="http://www.w3.org/2000/svg" id="icon-send">
    <path d="M24 0L0 13.5l7.67 2.84L19.5 5.25l-8.998 12.14.007.002-.009-.002V24l4.301-5.018L20.251 21 24 0z" ></path>
  </symbol>
  

<symbol viewBox="0 0 13 10" xmlns="http://www.w3.org/2000/svg" id="form__check">
    <path d="M1.957 4.752l-.069-.066-.069.065-.888.842-.076.072.076.073 3.496 3.334.069.066.069-.066 7.504-7.158.076-.073-.076-.072-.882-.841-.069-.066-.069.066-6.553 6.246-2.539-2.422z" stroke="#fff" stroke-width=".2"></path>
  </symbol>
  <symbol viewBox="0 0 16 15" xmlns="http://www.w3.org/2000/svg" id="form__checkbox">
    <path d="M14.222 1.667v11.666H1.778V1.667h12.444zm0-1.667H1.778C.8 0 0 .75 0 1.667v11.666C0 14.25.8 15 1.778 15h12.444C15.2 15 16 14.25 16 13.333V1.667C16 .75 15.2 0 14.222 0z" ></path>
  </symbol>


 <symbol xmlns="http://www.w3.org/2000/svg" viewBox="0 0 32 32" id="person-black-18dp">
     <path d="M16 12.522c2.306 0 4.174-1.868 4.174-4.174S18.306 4.174 16 4.174s-4.174 1.868-4.174 4.174 1.868 4.174 4.174 4.174zm0 2.087c-2.786 0-8.348 1.398-8.348 4.174v1.043c0 .574.47 1.043 1.043 1.043h14.609c.574 0 1.043-.47 1.043-1.043v-1.043c0-2.776-5.562-4.174-8.348-4.174z"></path>
  </symbol>

  <symbol viewBox="0 0 18 18"  xmlns="http://www.w3.org/2000/svg" id="phone-black-18dp">
    <path d="M13.996 11.123l-1.838-.21a1.44 1.44 0 0 0-1.187.412l-1.332 1.332a10.888 10.888 0 0 1-4.769-4.77L6.21 6.55a1.44 1.44 0 0 0 .412-1.187l-.21-1.824a1.448 1.448 0 0 0-1.44-1.28H3.72c-.818 0-1.498.68-1.448 1.498.384 6.18 5.327 11.115 11.5 11.499.817.05 1.498-.63 1.498-1.448v-1.252a1.434 1.434 0 0 0-1.274-1.432z" ></path>
  </symbol>

<symbol xmlns="http://www.w3.org/2000/svg" viewBox="0 0 32 32" id="phone-black-18dp">
    <path d="M24.882 19.773l-3.268-.373a2.561 2.561 0 0 0-2.11.733L17.137 22.5a19.357 19.357 0 0 1-8.478-8.478l2.38-2.38a2.561 2.561 0 0 0 .733-2.11l-.373-3.242a2.575 2.575 0 0 0-2.56-2.277H6.613c-1.454 0-2.663 1.209-2.573 2.663.682 10.987 9.469 19.761 20.443 20.443 1.454.09 2.663-1.119 2.663-2.573V22.32a2.55 2.55 0 0 0-2.264-2.547z"></path>
  </symbol>
  
 <symbol xmlns="http://www.w3.org/2000/svg" viewBox="0 0 32 32" id="three-bars">
    <path d="M6.4 11.734v-2.134h19.2v2.134h-19.2zM6.4 17.066h19.2v-2.133h-19.2v2.133zM6.4 22.4h19.2v-2.134h-19.2v2.134z"></path>
  </symbol>

<symbol viewBox="0 0 13 10" xmlns="http://www.w3.org/2000/svg" id="icon-check">
    <path d="M1.957 4.752l-.069-.066-.069.065-.888.842-.076.072.076.073 3.496 3.334.069.066.069-.066 7.504-7.158.076-.073-.076-.072-.882-.841-.069-.066-.069.066-6.553 6.246-2.539-2.422z" stroke="#fff" stroke-width=".2"></path>
  </symbol>

</svg>